# File created by Blade
# Date/Time:  Wed Apr 08 17:00:17 2015
# Frame Rate: 120.000 fps
#------------------------------------------------------
:FULLY-SPECIFIED
:DEGREES
1079
root 1.616936 35.588266 2.549754 -23.428115 -69.921678 8.788397
Spine 12.241828 8.151849 -11.983372
Head -3.356633 -5.647709 3.878682
LeftShoulder 7.766700 0.009733 23.030679
LeftArm 99.399677 48.035655 -36.630282
LeftForeArm -39.184707 0.000000 96.418565
LeftHand -23.593746 -0.000000 13.777982
LeftHandThumb1 -26.253704 0.000000 33.147579
RightShoulder -0.301819 -34.067761 -27.892578
RightArm 87.013166 33.964044 44.663238
RightForeArm 31.512395 -0.000000 132.180765
RightHand 2.200689 0.000000 32.731258
RightHandThumb1 -24.326973 -0.000000 -32.862282
LeftUpLeg 12.215692 0.538113 4.553381
LeftLeg 14.292037 -0.000000 -0.000000
LeftFoot -13.553093 -5.573225 -11.284477
LeftToeBase 10.655620 -0.000000 -0.000000
RightUpLeg 28.114614 -22.338427 -19.832733
RightLeg 1.776797 -0.000000 -0.000000
RightFoot -14.146532 2.683335 20.697109
RightToeBase 14.562924 -0.000000 -0.000000
1080
root 1.612530 35.587192 2.555683 -23.508565 -69.984000 8.840335
Spine 12.232907 8.084031 -11.941205
Head -3.335319 -5.410905 3.674002
LeftShoulder 7.723206 0.012109 23.037484
LeftArm 99.515833 48.003946 -36.481878
LeftForeArm -39.264484 -0.000000 96.430617
LeftHand -23.590339 0.000000 13.992455
LeftHandThumb1 -26.253704 0.000000 33.147579
RightShoulder -0.427633 -34.191244 -27.673093
RightArm 87.604181 34.131617 45.554140
RightForeArm 31.989396 -0.000000 132.196990
RightHand 2.289742 -0.000000 32.483837
RightHandThumb1 -24.326973 -0.000000 -32.862282
LeftUpLeg 12.277017 0.559051 4.538810
LeftLeg 14.279592 -0.000000 -0.000000
LeftFoot -13.582175 -5.519016 -11.283818
LeftToeBase 10.646378 -0.000000 -0.000000
RightUpLeg 28.113039 -22.281369 -19.848595
RightLeg 1.811867 -0.000000 -0.000000
RightFoot -14.156990 2.718644 20.702971
RightToeBase 14.545601 -0.000000 -0.000000
1081
root 1.608152 35.586912 2.559953 -23.559536 -70.044534 8.880563
Spine 12.201287 8.024602 -11.893513
Head -3.311213 -5.213578 3.454965
LeftShoulder 7.749122 0.070876 22.971199
LeftArm 99.680913 47.932043 -36.185395
LeftForeArm -39.227839 -0.000000 96.601972
LeftHand -23.395981 -0.000000 15.094990
LeftHandThumb1 -26.253704 0.000000 33.147579
RightShoulder -0.531687 -34.216447 -27.475904
RightArm 88.071978 34.228979 46.432312
RightForeArm 32.649926 0.000000 132.303527
RightHand 2.271341 -0.000000 32.382371
RightHandThumb1 -24.326973 -0.000000 -32.862282
LeftUpLeg 12.319721 0.588973 4.534176
LeftLeg 14.260901 -0.000000 -0.000000
LeftFoot -13.632376 -5.473557 -11.220868
LeftToeBase 10.767891 -0.000000 -0.000000
RightUpLeg 28.096529 -22.235154 -19.850157
RightLeg 1.840523 -0.000000 -0.000000
RightFoot -14.161879 2.749067 20.714636
RightToeBase 14.544320 -0.000000 -0.000000
1082
root 1.603340 35.586952 2.567809 -23.641787 -70.105606 8.952143
Spine 12.174261 7.970803 -11.847505
Head -3.313170 -5.015823 3.227601
LeftShoulder 7.758751 0.096796 22.958805
LeftArm 99.772664 47.948546 -36.117330
LeftForeArm -39.327605 -0.000000 96.624400
LeftHand -23.596899 -0.000000 15.465437
LeftHandThumb1 -26.253704 0.000000 33.147579
RightShoulder -0.640524 -34.266325 -27.287472
RightArm 88.531916 34.301261 47.315622
RightForeArm 33.334794 -0.000000 132.393550
RightHand 2.837661 0.000000 32.713326
RightHandThumb1 -24.326973 -0.000000 -32.862282
LeftUpLeg 12.368870 0.617274 4.512165
LeftLeg 14.244124 -0.000000 -0.000000
LeftFoot -13.658354 -5.424698 -11.211539
LeftToeBase 10.795606 -0.000000 -0.000000
RightUpLeg 28.090703 -22.194947 -19.878237
RightLeg 1.858737 -0.000000 -0.000000
RightFoot -14.149034 2.801241 20.736355
RightToeBase 14.565996 -0.000000 -0.000000
1083
root 1.599093 35.587411 2.572438 -23.674175 -70.181071 8.990487
Spine 12.126018 7.913581 -11.799576
Head -3.316214 -4.821200 3.015365
LeftShoulder 7.751228 0.111773 22.974937
LeftArm 99.681897 48.012965 -36.289035
LeftForeArm -39.216806 -0.000000 96.550065
LeftHand -23.983777 -0.000000 14.814529
LeftHandThumb1 -26.253704 0.000000 33.147579
RightShoulder -0.756944 -34.244446 -27.108398
RightArm 88.956644 34.286022 48.184850
RightForeArm 34.201004 -0.000000 132.498352
RightHand 2.919364 -0.000000 33.003928
RightHandThumb1 -24.326973 -0.000000 -32.862282
LeftUpLeg 12.399399 0.667796 4.516943
LeftLeg 14.227467 -0.000000 -0.000000
LeftFoot -13.661525 -5.399385 -11.232597
LeftToeBase 10.740831 -0.000000 -0.000000
RightUpLeg 28.067114 -22.182874 -19.888154
RightLeg 1.870590 -0.000000 -0.000000
RightFoot -14.125717 2.857977 20.718719
RightToeBase 14.544592 -0.000000 -0.000000
1084
root 1.593865 35.586109 2.578978 -23.763213 -70.245724 9.050683
Spine 12.113538 7.859426 -11.739309
Head -3.299186 -4.635688 2.760773
LeftShoulder 7.820336 0.122327 22.915379
LeftArm 99.305386 48.077927 -36.543218
LeftForeArm -39.163409 -0.000000 96.759100
LeftHand -23.954350 -0.000000 15.261489
LeftHandThumb1 -26.253704 0.000000 33.147579
RightShoulder -0.786411 -34.180340 -27.147070
RightArm 89.200015 34.138591 49.062983
RightForeArm 34.983692 -0.000000 132.728656
RightHand 2.793020 0.000000 32.911052
RightHandThumb1 -24.326973 -0.000000 -32.862282
LeftUpLeg 12.462257 0.703868 4.509774
LeftLeg 14.219282 -0.000000 -0.000000
LeftFoot -13.687584 -5.384470 -11.250241
LeftToeBase 10.725889 -0.000000 -0.000000
RightUpLeg 28.094207 -22.185075 -19.941533
RightLeg 1.878727 -0.000000 -0.000000
RightFoot -14.103882 2.948634 20.706566
RightToeBase 14.541283 -0.000000 -0.000000
1085
root 1.588872 35.585248 2.584693 -23.820216 -70.317622 9.088689
Spine 12.092387 7.779051 -11.685437
Head -3.291689 -4.448311 2.530958
LeftShoulder 7.813790 0.155629 22.894209
LeftArm 99.221366 48.074068 -36.537357
LeftForeArm -39.054249 -0.000000 96.896356
LeftHand -23.944227 -0.000000 15.669867
LeftHandThumb1 -26.253704 0.000000 33.147579
RightShoulder -0.837290 -34.106334 -27.122651
RightArm 89.446447 34.010837 49.907934
RightForeArm 35.819638 -0.000000 132.900023
RightHand 2.745214 -0.000000 32.973181
RightHandThumb1 -24.326973 -0.000000 -32.862282
LeftUpLeg 12.511893 0.761749 4.517929
LeftLeg 14.215015 -0.000000 -0.000000
LeftFoot -13.717229 -5.375167 -11.240839
LeftToeBase 10.754841 -0.000000 -0.000000
RightUpLeg 28.105812 -22.169044 -19.967811
RightLeg 1.878444 -0.000000 -0.000000
RightFoot -14.074234 3.014801 20.695002
RightToeBase 14.537753 -0.000000 -0.000000
1086
root 1.584403 35.584789 2.591771 -23.887780 -70.393003 9.150046
Spine 12.056893 7.711271 -11.633868
Head -3.284805 -4.241470 2.290681
LeftShoulder 7.795047 0.187971 22.871020
LeftArm 99.173779 48.072077 -36.540052
LeftForeArm -38.953393 -0.000000 96.949197
LeftHand -24.075244 -0.000000 15.575238
LeftHandThumb1 -26.253704 0.000000 33.147579
RightShoulder -0.926219 -33.981031 -27.052794
RightArm 89.730956 33.822550 50.798777
RightForeArm 36.579481 -0.000000 133.033375
RightHand 2.646803 -0.000000 33.132476
RightHandThumb1 -24.326973 -0.000000 -32.862282
LeftUpLeg 12.542872 0.839783 4.521959
LeftLeg 14.224342 -0.000000 -0.000000
LeftFoot -13.734441 -5.382922 -11.240775
LeftToeBase 10.773269 -0.000000 -0.000000
RightUpLeg 28.103989 -22.152902 -19.997473
RightLeg 1.881504 -0.000000 -0.000000
RightFoot -14.051988 3.093953 20.691925
RightToeBase 14.544880 -0.000000 -0.000000
1087
root 1.579572 35.583552 2.599265 -23.966614 -70.462704 9.202591
Spine 12.048436 7.615746 -11.573669
Head -3.285061 -3.966955 2.030253
LeftShoulder 7.751203 0.396098 22.781660
LeftArm 99.243700 47.903073 -36.428531
LeftForeArm -38.820399 -0.000000 96.938946
LeftHand -24.358633 -0.000000 14.361494
LeftHandThumb1 -26.253704 0.000000 33.147579
RightShoulder -1.027178 -33.920597 -26.984151
RightArm 90.094502 33.693858 51.700678
RightForeArm 37.085571 -0.000000 133.112939
RightHand 2.717421 0.000000 33.340256
RightHandThumb1 -24.326973 -0.000000 -32.862282
LeftUpLeg 12.594378 0.881271 4.518833
LeftLeg 14.235716 -0.000000 -0.000000
LeftFoot -13.738009 -5.379405 -11.308737
LeftToeBase 10.675782 -0.000000 -0.000000
RightUpLeg 28.129244 -22.124048 -20.029973
RightLeg 1.871584 -0.000000 -0.000000
RightFoot -14.040779 3.161392 20.724319
RightToeBase 14.606879 -0.000000 -0.000000
1088
root 1.575677 35.582505 2.603941 -24.037067 -70.553121 9.260066
Spine 12.012408 7.535256 -11.521754
Head -3.256637 -3.630484 1.786032
LeftShoulder 7.692958 0.478281 22.750321
LeftArm 99.339292 47.817324 -36.348982
LeftForeArm -38.508614 0.000000 96.916983
LeftHand -24.764758 -0.000000 13.822996
LeftHandThumb1 -26.253704 0.000000 33.147579
RightShoulder -1.124544 -33.924725 -26.881274
RightArm 90.454499 33.653723 52.546244
RightForeArm 37.516068 -0.000000 133.163968
RightHand 2.806968 -0.000000 33.333438
RightHandThumb1 -24.326973 -0.000000 -32.862282
LeftUpLeg 12.629738 0.976878 4.537858
LeftLeg 14.247173 -0.000000 -0.000000
LeftFoot -13.788672 -5.384389 -11.242949
LeftToeBase 10.788177 -0.000000 -0.000000
RightUpLeg 28.118301 -22.079099 -20.034209
RightLeg 1.878483 -0.000000 -0.000000
RightFoot -14.042025 3.205257 20.685242
RightToeBase 14.611352 -0.000000 -0.000000
1089
root 1.571953 35.581427 2.611438 -24.128592 -70.644186 9.339795
Spine 11.972144 7.425618 -11.463949
Head -3.213292 -3.242664 1.496722
LeftShoulder 7.627495 0.446865 22.727947
LeftArm 99.247916 47.837289 -36.396305
LeftForeArm -38.577263 -0.000000 96.968904
LeftHand -24.907167 -0.000000 13.865271
LeftHandThumb1 -26.253704 0.000000 33.147579
RightShoulder -1.196414 -33.904148 -26.826934
RightArm 90.833373 33.569257 53.491222
RightForeArm 37.719850 -0.000000 133.248673
RightHand 2.945433 -0.000000 33.408821
RightHandThumb1 -24.326973 -0.000000 -32.862282
LeftUpLeg 12.667228 1.058897 4.537796
LeftLeg 14.263777 -0.000000 -0.000000
LeftFoot -13.808028 -5.382116 -11.271409
LeftToeBase 10.737796 -0.000000 -0.000000
RightUpLeg 28.095242 -22.013169 -20.044472
RightLeg 1.904182 -0.000000 -0.000000
RightFoot -14.044198 3.268648 20.704897
RightToeBase 14.630389 -0.000000 -0.000000
1090
root 1.567173 35.580350 2.617200 -24.173350 -70.742995 9.385302
Spine 11.929747 7.324997 -11.396599
Head -3.222172 -2.855777 1.215908
LeftShoulder 7.553176 0.408657 22.704979
LeftArm 99.215033 47.869783 -36.391149
LeftForeArm -38.576741 -0.000000 97.019890
LeftHand -25.032495 -0.000000 13.988379
LeftHandThumb1 -26.253704 0.000000 33.147579
RightShoulder -1.325482 -33.828993 -26.698147
RightArm 91.204799 33.475726 54.363448
RightForeArm 37.841442 -0.000000 133.341171
RightHand 2.838924 -0.000000 33.359355
RightHandThumb1 -24.326973 -0.000000 -32.862282
LeftUpLeg 12.700617 1.140786 4.555760
LeftLeg 14.265438 -0.000000 -0.000000
LeftFoot -13.815857 -5.385016 -11.327217
LeftToeBase 10.698038 -0.000000 -0.000000
RightUpLeg 28.054569 -21.950765 -20.029136
RightLeg 1.932292 -0.000000 -0.000000
RightFoot -14.060920 3.313576 20.708098
RightToeBase 14.669096 -0.000000 -0.000000
